<svg t="1745822837910" class="icon" viewBox="0 0 1024 1024" version="1.1" xmlns="http://www.w3.org/2000/svg" p-id="8936" width="64" height="64"><path d="M256 170.666667h512c46.933333 0 85.333333 38.4 85.333333 85.333333v597.333333c0 46.933333-38.4 85.333333-85.333333 85.333334H256c-46.933333 0-85.333333-38.4-85.333333-85.333334V256c0-46.933333 38.4-85.333333 85.333333-85.333333z" fill="#A02D67" p-id="8937"></path><path d="M768 960H256c-59.733333 0-106.666667-46.933333-106.666667-106.666667V256c0-59.733333 46.933333-106.666667 106.666667-106.666667h512c59.733333 0 106.666667 46.933333 106.666667 106.666667v597.333333c0 59.733333-46.933333 106.666667-106.666667 106.666667zM256 192c-34.133333 0-64 29.866667-64 64v597.333333c0 34.133333 29.866667 64 64 64h512c34.133333 0 64-29.866667 64-64V256c0-34.133333-29.866667-64-64-64H256z" fill="#301196" p-id="8938"></path><path d="M256 85.333333h512c46.933333 0 85.333333 38.4 85.333333 85.333334v597.333333c0 46.933333-38.4 85.333333-85.333333 85.333333H256c-46.933333 0-85.333333-38.4-85.333333-85.333333V170.666667c0-46.933333 38.4-85.333333 85.333333-85.333334z" fill="#D04C83" p-id="8939"></path><path d="M768 874.666667H256c-59.733333 0-106.666667-46.933333-106.666667-106.666667V170.666667c0-59.733333 46.933333-106.666667 106.666667-106.666667h512c59.733333 0 106.666667 46.933333 106.666667 106.666667v597.333333c0 59.733333-46.933333 106.666667-106.666667 106.666667zM256 106.666667c-34.133333 0-64 29.866667-64 64v597.333333c0 34.133333 29.866667 64 64 64h512c34.133333 0 64-29.866667 64-64V170.666667c0-34.133333-29.866667-64-64-64H256z" fill="#301196" p-id="8940"></path><path d="M827.733333 170.666667v597.333333c0 34.133333-25.6 59.733333-59.733333 59.733333H256c-34.133333 0-59.733333-25.6-59.733333-59.733333V170.666667c0-34.133333 25.6-59.733333 59.733333-59.733334h512c34.133333 0 59.733333 25.6 59.733333 59.733334z" fill="#D86097" p-id="8941"></path><path d="M797.866667 170.666667v264.533333c0 17.066667-12.8 29.866667-29.866667 29.866667H256c-17.066667 0-29.866667-12.8-29.866667-29.866667V170.666667c0-17.066667 12.8-29.866667 29.866667-29.866667h512c17.066667 0 29.866667 12.8 29.866667 29.866667z" fill="#D04C83" p-id="8942"></path><path d="M785.066667 170.666667v264.533333c0 8.533333-8.533333 17.066667-17.066667 17.066667H256c-8.533333 0-17.066667-8.533333-17.066667-17.066667V170.666667c0-8.533333 8.533333-17.066667 17.066667-17.066667h512c8.533333 0 17.066667 8.533333 17.066667 17.066667z" fill="#EDC35B" p-id="8943"></path><path d="M349.866667 776.533333c-29.866667 0-51.2-21.333333-51.2-51.2v-8.533333h-8.533334c-29.866667 0-51.2-21.333333-51.2-51.2s21.333333-51.2 51.2-51.2H298.666667v-8.533333c0-29.866667 21.333333-51.2 51.2-51.2s51.2 21.333333 51.2 51.2v8.533333h8.533333c29.866667 0 51.2 21.333333 51.2 51.2s-21.333333 51.2-51.2 51.2h-8.533333v8.533333c0 29.866667-21.333333 51.2-51.2 51.2z" fill="#4F2AB5" p-id="8944"></path><path d="M409.6 640h-34.133333v-34.133333c0-12.8-12.8-25.6-25.6-25.6s-25.6 12.8-25.6 25.6v34.133333h-34.133334c-12.8 0-25.6 12.8-25.6 25.6s12.8 25.6 25.6 25.6h34.133334v34.133333c0 12.8 12.8 25.6 25.6 25.6s25.6-12.8 25.6-25.6v-34.133333h34.133333c12.8 0 25.6-12.8 25.6-25.6s-12.8-25.6-25.6-25.6z" fill="#EDC35B" p-id="8945"></path><path d="M712.533333 704m-72.533333 0a72.533333 72.533333 0 1 0 145.066667 0 72.533333 72.533333 0 1 0-145.066667 0Z" fill="#4F2AB5" p-id="8946"></path><path d="M712.533333 704m-42.666666 0a42.666667 42.666667 0 1 0 85.333333 0 42.666667 42.666667 0 1 0-85.333333 0Z" fill="#6ED6AB" p-id="8947"></path><path d="M494.933333 494.933333H640c25.6 0 42.666667 17.066667 42.666667 42.666667s-17.066667 42.666667-42.666667 42.666667h-145.066667c-25.6 0-42.666667-17.066667-42.666666-42.666667s17.066667-42.666667 42.666666-42.666667z" fill="#723FDB" p-id="8948"></path><path d="M494.933333 516.266667h42.666667c12.8 0 21.333333 8.533333 21.333333 21.333333s-8.533333 21.333333-21.333333 21.333333h-42.666667c-12.8 0-21.333333-8.533333-21.333333-21.333333s8.533333-21.333333 21.333333-21.333333zM593.066667 516.266667h42.666666c12.8 0 21.333333 8.533333 21.333334 21.333333s-8.533333 21.333333-21.333334 21.333333h-42.666666c-12.8 0-21.333333-8.533333-21.333334-21.333333s12.8-21.333333 21.333334-21.333333z" fill="#301196" p-id="8949"></path><path d="M290.133333 409.6h128v42.666667h-128zM332.8 366.933333h42.666667v42.666667h-42.666667z" fill="#E0B453" p-id="8950"></path><path d="M418.133333 238.933333h42.666667v85.333334h-42.666667zM375.466667 238.933333h42.666666v42.666667h-42.666666z" fill="#DDA854" p-id="8951"></path><path d="M674.133333 324.266667h42.666667v128h-42.666667z" fill="#DD8C54" p-id="8952"></path><path d="M546.133333 366.933333h85.333334v42.666667h-85.333334zM503.466667 324.266667h85.333333v42.666666h-85.333333z" fill="#DDA854" p-id="8953"></path><path d="M503.466667 409.6h128v42.666667h-128zM503.466667 366.933333h42.666666v42.666667h-42.666666z" fill="#E0B453" p-id="8954"></path></svg>